<?xml version="1.0" encoding="UTF-8" standalone="no"?><!-- Generator: Gravit.io --><svg xmlns="http://www.w3.org/2000/svg" xmlns:xlink="http://www.w3.org/1999/xlink" style="isolation:isolate" viewBox="0 0 24 24" width="24pt" height="24pt"><defs><clipPath id="_clipPath_NMGfavykB82BEiuMZU7mlsXvNIAl7e8a"><rect width="24" height="24"/></clipPath></defs><g clip-path="url(#_clipPath_NMGfavykB82BEiuMZU7mlsXvNIAl7e8a)"><path d=" M 24 0 L 0 0 L 0 24 L 24 24 L 24 0 Z " fill="none"/><path d=" M 6.35 6.35 C 7.8 4.9 9.79 4 12 4 C 16.42 4 19.99 7.58 19.99 12 C 19.99 16.42 16.42 20 12 20 C 8.27 20 5.16 17.45 4.27 14 L 6.35 14 C 7.17 16.33 9.39 18 12 18 C 15.31 18 18 15.31 18 12 C 18 8.69 15.31 6 12 6 C 10.34 6 8.86 6.69 7.78 7.78 L 11 11 L 4 11 L 4 4 L 6.35 6.35 Z " fill="rgb(0,0,0)"/></g></svg>